<svg id="Camada_1" data-name="Camada 1" xmlns="http://www.w3.org/2000/svg" viewBox="0 0 850 254.61"><defs><style>.cls-1{fill:#101820;}.cls-2{fill:#00b934;}</style></defs><g id="Horizontal"><path class="cls-1" d="M344,114.87V64.78H319V50.92h64V64.78H357.86v50.09Z"/><path class="cls-1" d="M411,114.87,387.71,50.92h14.65L416.3,89l13.95-38.1H443L457,89l13.95-38.1h14.56l-23.27,64H451.66l-15.1-41.12-15,41.12Z"/><path class="cls-1" d="M335.31,203.69a12.61,12.61,0,0,1-6.62-1.78,13.43,13.43,0,0,1-4.75-4.75,12.61,12.61,0,0,1-1.78-6.62V152.88a12.6,12.6,0,0,1,1.78-6.61,13.45,13.45,0,0,1,4.75-4.76,12.69,12.69,0,0,1,6.62-1.77h50.62v13.85H338.86a3.08,3.08,0,0,0-2.18.71,3,3,0,0,0-.75,2.22V186.9a2.63,2.63,0,0,0,2.93,2.93h47.07v13.86Z"/><path class="cls-1" d="M395.17,203.69V139.83h50.71a12.72,12.72,0,0,1,6.62,1.77,14,14,0,0,1,4.8,4.8,12.51,12.51,0,0,1,1.82,6.57v16.52a12.57,12.57,0,0,1-1.82,6.58,13.84,13.84,0,0,1-4.8,4.79,12.63,12.63,0,0,1-6.62,1.78l-36.95.09v21Zm50-34.91V153.59H408.93v15.19Zm-.35,34.91-18.57-22.12h18L459,199v4.71Z"/><path class="cls-1" d="M468.62,203.69V139.74h59.06v13.85H482.56v11.19h36.33v13.86H482.56v11.19h45.12v13.86Z"/><path class="cls-1" d="M536.65,152.88a12.69,12.69,0,0,1,1.78-6.61,13.35,13.35,0,0,1,4.8-4.76,12.75,12.75,0,0,1,6.57-1.77h37.57a12.74,12.74,0,0,1,6.62,1.77,13.9,13.9,0,0,1,4.79,4.76,12.45,12.45,0,0,1,1.82,6.61v50.81H586.66V183.08H550.42v20.61H536.65Zm50,16.35V153.59H550.42v15.64Z"/><path class="cls-1" d="M632.58,203.69v-50.1H607.53V139.74h64v13.85H646.43v50.1Z"/><path class="cls-1" d="M675.92,203.69V139.74h13.59v63.95Z"/><path class="cls-1" d="M732.32,203.69l-37-63.95h16l26.82,46.45,26.82-46.45h15.9l-37,63.95Z"/><path class="cls-1" d="M799.2,203.69a12.72,12.72,0,0,1-6.58-1.78,13.2,13.2,0,0,1-4.79-4.8,12.66,12.66,0,0,1-1.78-6.57v-5.95h13.77v5.24h36.23V178.64H799.2a12.72,12.72,0,0,1-6.58-1.78,13.3,13.3,0,0,1-4.79-4.75,12.61,12.61,0,0,1-1.78-6.62V152.88a12.6,12.6,0,0,1,1.78-6.61,13.41,13.41,0,0,1,4.79-4.76,12.81,12.81,0,0,1,6.58-1.77h37.66a12.52,12.52,0,0,1,6.52,1.77,13.93,13.93,0,0,1,4.8,4.76,12.45,12.45,0,0,1,1.82,6.61v6h-14v-5.24H799.82v11.19h37a12.53,12.53,0,0,1,6.52,1.78,14,14,0,0,1,4.8,4.75,12.48,12.48,0,0,1,1.82,6.62v12.61a12.51,12.51,0,0,1-1.82,6.57,13.71,13.71,0,0,1-4.8,4.8,12.43,12.43,0,0,1-6.52,1.78Z"/><polygon class="cls-2" points="184.4 96.53 184.4 74.76 119.98 36.11 119.98 218.5 156.62 196.51 156.62 113.64 212.18 146.98 212.18 174.75 184.4 158.09 184.4 207.63 106.09 254.61 27.78 207.63 27.78 158.09 0 174.75 0 146.98 55.55 113.64 55.55 196.51 92.2 218.5 92.2 36.11 27.78 74.76 27.78 96.53 0 113.19 0 63.65 106.09 0 212.18 63.65 212.18 113.19 184.4 96.53"/></g></svg>